#!OML:ASF F:\VICON\USERDATA\INSTALL\rory3\rory3.ASF
:FULLY-SPECIFIED
:DEGREES
2969
root 6.2604 17.7346 -11.8298 1055.26 88.4793 -1102.63
lowerback 10.9484 2.23786 0.669956
upperback 0.78982 3.13266 0.728521
thorax -5.31526 1.55046 -0.0972868
lowerneck -19.2458 -5.82257 -11.1834
upperneck 34.2413 -6.63968 7.97772
head 16.1631 -2.80881 4.21569
rclavicle -3.47873e-014 2.5842e-015
rhumerus -33.8596 -10.0544 -81.0077
rradius 33.553
rwrist 4.38904
rhand -17.7972 9.60432
rfingers 7.12502
rthumb 8.46601 -20.206
lclavicle -3.47873e-014 2.5842e-015
lhumerus -32.7495 9.58015 81.8643
lradius 27.8812
lwrist -10.5913
lhand -17.3818 25.1761
lfingers 7.12502
lthumb 8.86695 54.9698
rfemur 9.15422 3.18781 28.048
rtibia 25.332
rfoot -14.6682 -1.17801
rtoes -3.33188
lfemur -18.3851 -5.78841 -17.2454
ltibia 16.6022
lfoot 2.25756 -8.12911
ltoes 1.08476
2970
root 6.38636 17.7281 -11.8457 1071.97 88.2389 -1085.85
lowerback 10.8599 2.30558 0.277911
upperback 0.812587 3.16015 0.506337
thorax -5.25013 1.57056 -0.108935
lowerneck -19.2076 -5.84548 -11.0611
upperneck 34.2779 -6.75674 8.05967
head 16.186 -2.82981 4.20989
rclavicle -1.65488e-014 -1.05356e-014
rhumerus -33.9755 -10.5625 -81.0433
rradius 32.8955
rwrist 4.58304
rhand -17.372 9.45106
rfingers 7.12502
rthumb 8.87636 -20.3422
lclavicle -1.65488e-014 -1.05356e-014
lhumerus -32.6407 8.99181 81.9472
lradius 27.8136
lwrist -8.65719
lhand -16.4829 24.5306
lfingers 7.12502
lthumb 9.73422 54.2856
rfemur 8.48539 3.21851 27.5051
rtibia 27.5048
rfoot -14.2238 -1.02391
rtoes -3.36547
lfemur -17.8041 -5.11911 -17.9168
ltibia 16.4211
lfoot 1.928 -8.13664
ltoes -4.76216
2971
root 6.50414 17.7386 -11.862 1084.11 87.8734 -1073.63
lowerback 10.865 2.34013 -0.181456
upperback 0.817995 3.14194 0.367338
thorax -5.26403 1.57022 0.00615465
lowerneck -19.1372 -5.83655 -11.1539
upperneck 34.326 -6.76787 8.19724
head 16.2069 -2.82865 4.28937
rclavicle -2.13072e-014 -6.36111e-015
rhumerus -34.0613 -11.0078 -80.9311
rradius 32.2276
rwrist 4.75981
rhand -16.9503 9.40765
rfingers 7.12502
rthumb 9.28333 -20.368
lclavicle -2.13072e-014 -6.36111e-015
lhumerus -32.5893 10.0901 81.2651
lradius 27.6944
lwrist -10.5236
lhand -16.3887 24.605
lfingers 7.12502
lthumb 9.82513 54.3557
rfemur 7.71172 3.16273 26.9377
rtibia 29.822
rfoot -13.585 -0.874821
rtoes -3.45792
lfemur -17.1248 -4.45616 -18.5288
ltibia 16.1518
lfoot 1.6817 -8.30318
ltoes -5.85386
2972
root 6.62052 17.7583 -11.8807 1090.48 87.6059 -1067.18
lowerback 10.9145 2.32764 -0.493572
upperback 0.807558 3.08205 0.279283
thorax -5.31386 1.54659 0.0959001
lowerneck -19.0069 -5.83245 -11.2769
upperneck 34.3935 -6.77589 8.32755
head 16.2242 -2.83139 4.37347
rclavicle -1.86733e-014 5.96354e-016
rhumerus -34.2087 -11.7729 -80.5832
rradius 31.5601
rwrist 5.2763
rhand -16.5686 9.42902
rfingers 7.12502
rthumb 9.65154 -20.3299
lclavicle -1.86733e-014 5.96354e-016
lhumerus -32.6152 10.5644 80.9654
lradius 27.665
lwrist -11.1746
lhand -15.1262 24.8416
lfingers 7.12502
lthumb 11.043 54.5311
rfemur 6.83963 2.8121 26.4189
rtibia 32.2188
rfoot -12.5992 -0.577425
rtoes -4.08069
lfemur -16.3504 -4.09631 -18.9595
ltibia 15.7776
lfoot 1.66604 -8.77967
ltoes -3.18916
2973
root 6.73842 17.7803 -11.8988 1094.44 87.3416 -1063.15
lowerback 10.8965 2.32478 -0.670222
upperback 0.8205 3.04984 0.151183
thorax -5.29198 1.53347 0.0674288
lowerneck -18.9436 -5.81739 -11.1813
upperneck 34.4614 -6.7763 8.2782
head 16.2353 -2.82589 4.33857
rclavicle -2.29472e-014 5.96354e-015
rhumerus -34.3508 -12.6924 -80.2609
rradius 30.9184
rwrist 6.03508
rhand -16.0812 9.30182
rfingers 7.12502
rthumb 10.1218 -20.4347
lclavicle -2.29472e-014 5.96354e-015
lhumerus -32.5756 10.4774 80.8768
lradius 27.5858
lwrist -10.7131
lhand -15.6356 25.1117
lfingers 7.12502
lthumb 10.5516 54.8268
rfemur 5.88336 2.4326 25.8842
rtibia 34.6484
rfoot -11.2298 -0.052404
rtoes -2.45865
lfemur -15.5864 -3.82299 -19.3287
ltibia 15.364
lfoot 1.7276 -9.42095
ltoes -1.41367
2974
root 6.85669 17.8106 -11.912 1098.3 87.0277 -1059.18
lowerback 10.8206 2.32835 -0.957073
upperback 0.91775 3.01566 0.0247828
thorax -5.15508 1.52256 0.107518
lowerneck -18.9756 -5.82203 -11.1654
upperneck 34.4891 -6.80872 8.32898
head 16.2633 -2.83065 4.35336
rclavicle 6.29899e-015 7.95139e-016
rhumerus -34.3552 -12.9828 -80.251
rradius 30.4351
rwrist 6.09619
rhand -16.0969 9.02127
rfingers 7.12502
rthumb 10.1067 -20.716
lclavicle 6.29899e-015 7.95139e-016
lhumerus -32.4261 9.95527 81.0131
lradius 27.555
lwrist -9.23724
lhand -13.7444 24.5115
lfingers 7.12502
lthumb 12.3756 54.1252
rfemur 4.93591 1.86526 25.1892
rtibia 37.1117
rfoot -9.64913 0.757255
rtoes 1.20652
lfemur -14.7204 -3.42031 -19.7578
ltibia 14.8361
lfoot 1.8368 -9.82463
ltoes -0.664457
2975
root 6.97053 17.8346 -11.9271 1101.5 86.7238 -1055.87
lowerback 10.8841 2.28092 -1.25532
upperback 0.925066 2.91142 -0.0678882
thorax -5.19158 1.47698 0.191406
lowerneck -18.9277 -5.78336 -11.2373
upperneck 34.5762 -6.76034 8.41288
head 16.2971 -2.80915 4.41943
rclavicle -3.60297e-016 -4.77083e-015
rhumerus -34.517 -13.2799 -80.1822
rradius 30.0149
rwrist 6.26236
rhand -16.218 8.97679
rfingers 7.12502
rthumb 9.98983 -20.7661
lclavicle -3.60297e-016 -4.77083e-015
lhumerus -32.4948 9.9143 80.9164
lradius 27.6218
lwrist -8.79434
lhand -14.1573 24.8734
lfingers 7.12502
lthumb 11.9774 54.5107
rfemur 3.84794 0.912745 24.3807
rtibia 39.5967
rfoot -7.81755 1.61834
rtoes 2.49636
lfemur -13.8205 -2.81866 -20.2436
ltibia 14.1154
lfoot 1.92428 -10.1362
ltoes -2.09422
2976
root 7.08422 17.8522 -11.9483 1104.74 86.387 -1052.49
lowerback 10.9493 2.1946 -1.41503
upperback 0.95291 2.76924 -0.227642
thorax -5.19594 1.40924 0.13427
lowerneck -18.886 -5.689 -11.2081
upperneck 34.611 -6.6274 8.39419
head 16.2821 -2.75421 4.43461
rclavicle 2.66931e-014 -5.46658e-015
rhumerus -34.6475 -14.0583 -80.0074
rradius 29.5419
rwrist 7.01078
rhand -16.3037 8.97023
rfingers 7.12502
rthumb 9.90717 -20.7767
lclavicle 2.66931e-014 -5.46658e-015
lhumerus -32.5059 10.1732 80.5392
lradius 27.5459
lwrist -9.65462
lhand -14.9352 25.0664
lfingers 7.12502
lthumb 11.2272 54.746
rfemur 2.72521 0.194323 23.6026
rtibia 42.0452
rfoot -5.78879 1.99917
rtoes 1.92577
lfemur -12.8662 -2.33588 -20.7995
ltibia 13.3258
lfoot 2.01907 -10.4003
ltoes -3.19441
2977
root 7.19716 17.8743 -11.9703 1105.65 86.028 -1051.38
lowerback 11.061 2.13053 -1.33807
upperback 1.02209 2.68295 -0.45117
thorax -5.16976 1.3637 -0.131375
lowerneck -18.9668 -5.6663 -11.1575
upperneck 34.709 -6.61705 8.41647
head 16.3481 -2.73976 4.443
rclavicle -1.26228e-014 -2.88238e-015
rhumerus -34.7153 -14.7643 -79.9875
rradius 29.0704
rwrist 7.48424
rhand -16.3206 8.91831
rfingers 7.12502
rthumb 9.89088 -20.8294
lclavicle -1.26228e-014 -2.88238e-015
lhumerus -32.416 9.8304 80.3003
lradius 27.4618
lwrist -9.85446
lhand -15.1165 24.9654
lfingers 7.12502
lthumb 11.0523 54.6544
rfemur 1.6637 -0.221113 23.0384
rtibia 44.4013
rfoot -3.49178 2.05463
rtoes 2.30735
lfemur -11.7972 -2.15359 -21.1873
ltibia 12.5159
lfoot 2.11771 -10.3878
ltoes -2.50782
2978
root 7.30404 17.8954 -11.9893 1104.2 85.7345 -1052.63
lowerback 11.2513 2.07143 -1.20147
upperback 1.07631 2.61461 -0.566047
thorax -5.20654 1.32671 -0.323454
lowerneck -19.1377 -5.69134 -11.1345
upperneck 34.8773 -6.62837 8.34931
head 16.473 -2.7495 4.41463
rclavicle -1.35981e-014 1.3418e-015
rhumerus -34.8629 -14.8634 -80.1103
rradius 28.8855
rwrist 7.43419
rhand -16.1296 8.75899
rfingers 7.12502
rthumb 10.0751 -20.9798
lclavicle -1.35981e-014 1.3418e-015
lhumerus -32.3426 9.60308 80.1748
lradius 27.417
lwrist -9.82675
lhand -14.9174 24.8623
lfingers 7.12502
lthumb 11.2444 54.5409
rfemur 0.585704 -0.737808 22.6548
rtibia 46.6414
rfoot -1.09914 2.22444
rtoes 3.26937
lfemur -10.7471 -1.7993 -21.3837
ltibia 11.6987
lfoot 2.12744 -10.5564
ltoes -2.71937
